<svg id="visual" viewBox="0 0 900 600" width="900" height="600" xmlns="http://www.w3.org/2000/svg" xmlns:xlink="http://www.w3.org/1999/xlink" version="1.1"><rect x="0" y="0" width="900" height="600" fill="#121212"></rect><path d="M0 519L21.5 506.3C43 493.7 86 468.3 128.8 445.5C171.7 422.7 214.3 402.3 257.2 405.8C300 409.3 343 436.7 385.8 457.7C428.7 478.7 471.3 493.3 514.2 489C557 484.7 600 461.3 642.8 452.2C685.7 443 728.3 448 771.2 454C814 460 857 467 878.5 470.5L900 474L900 601L878.5 601C857 601 814 601 771.2 601C728.3 601 685.7 601 642.8 601C600 601 557 601 514.2 601C471.3 601 428.7 601 385.8 601C343 601 300 601 257.2 601C214.3 601 171.7 601 128.8 601C86 601 43 601 21.5 601L0 601Z" fill="#BB86FC" stroke-linecap="round" stroke-linejoin="miter"></path></svg>